<svg version="1.1" viewBox="0.0 0.0 128.0 128.0" fill="none" stroke="none" stroke-linecap="square" stroke-miterlimit="10" xmlns:xlink="http://www.w3.org/1999/xlink" xmlns="http://www.w3.org/2000/svg"><clipPath id="p.0"><path d="m0 0l128.0 0l0 128.0l-128.0 0l0 -128.0z" clip-rule="nonzero"/></clipPath><g clip-path="url(#p.0)"><path fill="#000000" fill-opacity="0.0" d="m0 0l128.0 0l0 128.0l-128.0 0z" fill-rule="evenodd"/><path fill="#1ce07e" d="m100.66049 9.734908c-6.3275604 0 -12.387291 0.88717556 -18.179192 2.6615267l0 15.718073c0 4.6200085 1.2219925 8.112909 3.6659698 10.478716c2.4439774 2.3546371 5.8421173 3.5319633 10.194412 3.5319633c2.577896 0 4.837738 -0.41847992 6.7795334 -1.2554398l-1.0043793 -6.9802284c-1.1382904 0.40174103 -2.5444183 0.6026077 -4.218376 0.6026077c-4.117935 0 -6.1769104 -2.0589142 -6.1769104 -6.1767483l0 -9.742193c2.7452927 -0.6360874 5.5240707 -0.9541321 8.336319 -0.9541321c5.4236298 0 9.759178 1.7520332 13.00666 5.256098c3.2474823 3.4929066 4.8712234 8.118492 4.8712234 13.876764c0 6.5617523 -2.0701294 11.477482 -6.210388 14.7472c-4.1291046 3.2585564 -9.056122 4.8878365 -14.781059 4.8878365c-5.055359 0 -9.223511 -1.0545654 -12.504471 -3.1637l-2.3100662 7.9343605c3.7831497 2.3769608 8.938942 3.5654411 15.467384 3.5654411c9.575043 0 17.040901 -2.5443497 22.397568 -7.6330566c5.3566666 -5.088703 8.035004 -11.93502 8.035004 -20.538952c0 -8.704363 -2.6113815 -15.349812 -7.8341293 -19.93634c-5.2227554 -4.5865307 -11.734451 -6.879796 -19.535103 -6.879796z" fill-rule="evenodd"/><path fill="#00ffcd" d="m63.382515 21.93192l-1.5426865 11.250782l1.4674339 0c1.4298058 0 2.7467308 -0.58950806 3.950779 -1.7685184c1.2040482 -1.1790104 2.0443726 -2.6465034 2.5209808 -4.402479l9.858139 0l0 20.657787l8.353081 0l0 29.274609l6.9985275 0l0 -34.35439l-8.315453 0l0 -15.578007l12.642502 0c0.4515152 1.7559757 1.2960205 3.2234688 2.533516 4.402479c1.2458496 1.1790104 2.5836868 1.7685184 4.013489 1.7685184l1.4674377 0l-1.5426865 -11.250782z" fill-rule="evenodd"/><path fill="#00c8ff" d="m69.063965 43.582684l0 20.493443c-2.9990387 2.6380463 -6.3590736 3.9570694 -10.080105 3.9570694c-3.0545807 0 -5.637089 -0.80529785 -7.7475243 -2.4158936c-2.4714317 -1.9160538 -3.7071457 -4.5957527 -3.7071457 -8.039097l0 -13.995522zm-34.114082 -6.6645355l0 6.6645355l5.2483215 0l0 15.82827c0 4.6651726 1.8743973 8.511166 5.6231995 11.537975c3.4988785 2.8601913 7.6225624 4.290291 12.37104 4.290291c3.998722 0 7.6225586 -1.0829849 10.871521 -3.2489624l0 19.910301l7.330986 0l0 -48.317875l12.704269 0l0 -6.6645355z" fill-rule="evenodd"/><path fill="#009bff" d="m16.657694 48.938396l0 55.008633l7.2794247 0l0 -48.517166l28.66743 0l0 48.517166l7.316948 0l0 -55.008633z" fill-rule="evenodd"/><path fill="#005dff" d="m21.348654 69.734184c3.3017254 0 5.5654087 0.16259766 6.79105 0.48779297c1.9009933 0.52532196 3.4309597 1.6093216 4.589899 3.2519913c1.1672783 1.6343307 1.7509155 3.6022034 1.7509155 5.90361c0 3.176941 -0.98801804 5.6409454 -2.9640503 7.3920135c-1.9760323 1.7510757 -5.315277 2.6266098 -10.017736 2.6266098l-14.219931 0l0 -19.662018zm-21.348658 -6.491474l0 55.008633l7.2788043 0l0 -22.36367l14.107372 0c7.779066 0 13.156876 -1.6176529 16.13343 -4.8529663c2.9765587 -3.2436523 4.464836 -7.2044067 4.464836 -11.882271c0 -2.7266617 -0.55862427 -5.228195 -1.6758766 -7.5045853c-1.1089134 -2.27639 -2.5763474 -4.044136 -4.402302 -5.3032455c-1.8259544 -1.2674408 -4.089636 -2.126297 -6.791048 -2.5765724c-1.9260063 -0.3502121 -4.714964 -0.52532196 -8.366873 -0.52532196z" fill-rule="evenodd"/></g></svg>