<?xml version="1.0" standalone="no"?>
<!DOCTYPE svg PUBLIC "-//W3C//DTD SVG 20010904//EN"
 "http://www.w3.org/TR/2001/REC-SVG-20010904/DTD/svg10.dtd">
<svg version="1.0" xmlns="http://www.w3.org/2000/svg"
 width="700.000000pt" height="700.000000pt" viewBox="0 0 700.000000 700.000000"
 preserveAspectRatio="xMidYMid meet">
<metadata>
Created by potrace 1.14, written by Peter Selinger 2001-2017
</metadata>
<g transform="translate(0.000000,700.000000) scale(0.100000,-0.100000)"
fill="#000000" stroke="none">
<path d="M5297 6464 c-1 -1 -40 -5 -87 -9 -47 -4 -97 -8 -111 -10 -36 -4 -180
-26 -204 -31 -11 -2 -36 -7 -55 -10 -35 -6 -240 -56 -295 -72 l-30 -8 -3 -262
-2 -262 -520 0 c-285 0 -521 -3 -523 -7 -3 -5 -8 -32 -11 -62 -3 -30 -10 -82
-15 -115 -5 -34 -12 -83 -16 -111 -3 -27 -11 -81 -16 -120 -31 -213 -32 -200
16 -200 63 0 126 13 170 36 80 41 165 145 201 247 11 30 25 52 34 53 85 5 499
3 510 -2 13 -6 15 -45 15 -271 l0 -263 -1160 -2 c-638 -2 -1188 -3 -1222 -3
l-63 0 0 -180 c0 -180 0 -180 23 -181 12 -1 76 -2 142 -3 l120 -1 2 -145 2
-146 -632 1 c-348 0 -638 -1 -644 -3 -10 -3 -13 -91 -13 -393 l0 -390 -398 1
c-218 0 -423 1 -454 0 l-58 0 0 -1504 0 -1503 199 0 199 1 0 576 c1 316 1 591
1 610 l1 36 253 -1 252 0 5 -220 5 -220 195 0 195 0 3 223 2 222 33 1 c17 1
41 3 52 4 11 1 44 5 73 8 124 14 276 54 372 99 240 110 417 376 448 673 24
239 -22 452 -137 627 -87 133 -211 232 -361 289 -93 35 -266 67 -410 74 -25 2
-51 3 -57 4 -10 1 -13 51 -13 216 l0 215 445 0 444 0 0 -137 c0 -215 17 -307
83 -438 96 -192 270 -342 503 -436 l90 -36 2 -794 c0 -437 1 -799 2 -804 1 -7
72 -10 199 -10 l197 0 2 775 c1 426 2 780 2 786 1 6 36 17 79 24 107 17 240
62 337 115 l82 44 1 -532 c0 -293 1 -537 1 -543 1 -8 60 -11 199 -10 l197 1 2
1295 c1 712 2 1307 2 1321 l1 27 88 -2 87 -1 1 -100 c1 -55 2 -105 3 -111 1
-7 69 -11 222 -10 121 1 223 -2 226 -7 10 -16 4 -382 -6 -385 -6 -2 -49 16
-96 39 -46 24 -86 41 -89 38 -2 -2 -29 -94 -61 -203 -31 -110 -59 -205 -61
-211 -6 -15 127 -82 239 -121 l77 -27 0 -71 c1 -39 1 -203 1 -363 l-1 -293
190 0 c105 1 191 4 191 8 1 4 2 152 3 329 0 177 3 324 6 327 3 3 93 7 200 10
107 3 204 7 215 9 11 3 45 8 75 12 161 20 363 78 499 142 409 192 693 557 777
1000 25 134 25 134 28 353 5 317 -38 538 -147 755 -84 168 -254 358 -417 467
-208 139 -453 227 -705 254 -60 7 -423 13 -428 8z m401 -449 c200 -43 337
-117 468 -251 146 -149 236 -342 271 -574 15 -101 9 -367 -11 -460 -58 -281
-182 -466 -411 -612 -229 -147 -481 -211 -790 -199 l-30 1 0 373 0 372 -163 3
-162 2 0 50 c0 28 2 50 5 50 2 0 37 -11 77 -24 99 -34 193 -48 318 -48 126 0
181 8 302 43 l68 20 -5 37 c-6 39 -21 144 -30 202 -3 19 -8 60 -11 91 l-7 57
-30 -9 c-144 -41 -334 -27 -421 31 -43 29 -90 99 -105 155 -15 58 -21 184 -9
191 14 9 387 11 401 2 5 -3 18 -27 28 -53 43 -113 127 -209 224 -254 42 -20
164 -34 184 -22 7 5 8 25 1 66 -5 33 -12 84 -15 114 -4 30 -8 61 -10 70 -1 9
-6 41 -10 71 -4 30 -9 63 -11 73 -2 10 -6 44 -9 75 -4 31 -10 75 -13 97 l-7
40 -385 5 -384 5 0 90 0 90 64 12 c113 21 133 24 200 29 36 3 66 7 67 8 11 10
288 -5 351 -19z m-1922 -1961 l1 -560 -61 -45 c-112 -84 -214 -130 -336 -153
-116 -21 -103 -85 -103 507 0 365 -3 517 -11 518 -6 1 -157 2 -336 3 l-325 1
-5 35 c-3 19 -4 85 -2 146 l3 110 587 0 587 -1 1 -561z m-901 -386 c1 -164 -2
-298 -5 -298 -14 0 -72 43 -117 87 -103 101 -142 202 -150 386 l-6 128 139 -3
139 -3 0 -297z m-1965 -1020 l0 -538 -255 0 -255 0 -1 23 c-3 123 1 1038 5
1045 3 5 117 9 256 8 l250 0 0 -538z m523 527 c43 -3 102 -15 131 -25 246 -84
369 -352 302 -655 -16 -73 -61 -155 -119 -217 -69 -74 -222 -137 -369 -153
l-68 -7 0 530 c0 497 1 531 18 535 9 2 19 3 22 1 3 -1 40 -5 83 -9z"/>
</g>
</svg>
